# xmcd CD database file
#
# Track frame offsets:
#	150
#	18853
#	39301
#	58118
#	78135
#	103768
#	121125
#	146138
#	164599
#	189011
#
# Disc length: 2748 seconds
#
# Revision: 0
# Processed by: cddbd v1.4PL0 Copyright (c) Steve Scherf et al.
# Submitted via: CDex 1.50
#
DISCID=780aba0a
DTITLE=Various Artist - Reflections - Saxophone
DYEAR=1900
DGENRE=Jazz
TTITLE0=Teach me your ways
TTITLE1=You are my God
TTITLE2=Keep on praying
TTITLE3=I worship you almighty God
TTITLE4=Revive me
TTITLE5=With our hearts
TTITLE6=Mourning into dancing
TTITLE7=Sure foundation
TTITLE8=A broken spirit
TTITLE9=Faithful to lead us on
EXTD=
EXTT0=
EXTT1=
EXTT2=
EXTT3=
EXTT4=
EXTT5=
EXTT6=
EXTT7=
EXTT8=
EXTT9=
PLAYORDER=
